<svg id="visual" viewBox="0 0 900 600" width="900" height="600" xmlns="http://www.w3.org/2000/svg" xmlns:xlink="http://www.w3.org/1999/xlink" version="1.1"><rect x="0" y="0" width="900" height="600" fill="#fff5e6"></rect><defs><linearGradient id="grad1_0" x1="33.3%" y1="100%" x2="100%" y2="0%"><stop offset="20%" stop-color="#45c8d7" stop-opacity="1"></stop><stop offset="80%" stop-color="#45c8d7" stop-opacity="1"></stop></linearGradient></defs><defs><linearGradient id="grad1_1" x1="33.3%" y1="100%" x2="100%" y2="0%"><stop offset="20%" stop-color="#45c8d7" stop-opacity="1"></stop><stop offset="80%" stop-color="#6bd0cb" stop-opacity="1"></stop></linearGradient></defs><defs><linearGradient id="grad1_2" x1="33.3%" y1="100%" x2="100%" y2="0%"><stop offset="20%" stop-color="#8dd7c3" stop-opacity="1"></stop><stop offset="80%" stop-color="#6bd0cb" stop-opacity="1"></stop></linearGradient></defs><defs><linearGradient id="grad1_3" x1="33.3%" y1="100%" x2="100%" y2="0%"><stop offset="20%" stop-color="#8dd7c3" stop-opacity="1"></stop><stop offset="80%" stop-color="#acddbf" stop-opacity="1"></stop></linearGradient></defs><defs><linearGradient id="grad1_4" x1="33.3%" y1="100%" x2="100%" y2="0%"><stop offset="20%" stop-color="#c8e2c1" stop-opacity="1"></stop><stop offset="80%" stop-color="#acddbf" stop-opacity="1"></stop></linearGradient></defs><defs><linearGradient id="grad1_5" x1="33.3%" y1="100%" x2="100%" y2="0%"><stop offset="20%" stop-color="#c8e2c1" stop-opacity="1"></stop><stop offset="80%" stop-color="#dfe8c9" stop-opacity="1"></stop></linearGradient></defs><defs><linearGradient id="grad1_6" x1="33.3%" y1="100%" x2="100%" y2="0%"><stop offset="20%" stop-color="#f2eed6" stop-opacity="1"></stop><stop offset="80%" stop-color="#dfe8c9" stop-opacity="1"></stop></linearGradient></defs><defs><linearGradient id="grad1_7" x1="33.3%" y1="100%" x2="100%" y2="0%"><stop offset="20%" stop-color="#f2eed6" stop-opacity="1"></stop><stop offset="80%" stop-color="#fff5e6" stop-opacity="1"></stop></linearGradient></defs><defs><linearGradient id="grad2_0" x1="0%" y1="100%" x2="66.7%" y2="0%"><stop offset="20%" stop-color="#45c8d7" stop-opacity="1"></stop><stop offset="80%" stop-color="#45c8d7" stop-opacity="1"></stop></linearGradient></defs><defs><linearGradient id="grad2_1" x1="0%" y1="100%" x2="66.7%" y2="0%"><stop offset="20%" stop-color="#6bd0cb" stop-opacity="1"></stop><stop offset="80%" stop-color="#45c8d7" stop-opacity="1"></stop></linearGradient></defs><defs><linearGradient id="grad2_2" x1="0%" y1="100%" x2="66.7%" y2="0%"><stop offset="20%" stop-color="#6bd0cb" stop-opacity="1"></stop><stop offset="80%" stop-color="#8dd7c3" stop-opacity="1"></stop></linearGradient></defs><defs><linearGradient id="grad2_3" x1="0%" y1="100%" x2="66.7%" y2="0%"><stop offset="20%" stop-color="#acddbf" stop-opacity="1"></stop><stop offset="80%" stop-color="#8dd7c3" stop-opacity="1"></stop></linearGradient></defs><defs><linearGradient id="grad2_4" x1="0%" y1="100%" x2="66.7%" y2="0%"><stop offset="20%" stop-color="#acddbf" stop-opacity="1"></stop><stop offset="80%" stop-color="#c8e2c1" stop-opacity="1"></stop></linearGradient></defs><defs><linearGradient id="grad2_5" x1="0%" y1="100%" x2="66.7%" y2="0%"><stop offset="20%" stop-color="#dfe8c9" stop-opacity="1"></stop><stop offset="80%" stop-color="#c8e2c1" stop-opacity="1"></stop></linearGradient></defs><defs><linearGradient id="grad2_6" x1="0%" y1="100%" x2="66.7%" y2="0%"><stop offset="20%" stop-color="#dfe8c9" stop-opacity="1"></stop><stop offset="80%" stop-color="#f2eed6" stop-opacity="1"></stop></linearGradient></defs><defs><linearGradient id="grad2_7" x1="0%" y1="100%" x2="66.7%" y2="0%"><stop offset="20%" stop-color="#fff5e6" stop-opacity="1"></stop><stop offset="80%" stop-color="#f2eed6" stop-opacity="1"></stop></linearGradient></defs><g transform="translate(900, 600)"><path d="M-540.8 0C-532.1 -103.9 -523.3 -207.9 -468.4 -270.4C-413.4 -333 -312.3 -354.1 -226.5 -392.3C-140.7 -430.5 -70.4 -485.7 0 -540.8L0 0Z" fill="#f9f1de"></path><path d="M-473.2 0C-465.6 -90.9 -457.9 -181.9 -409.8 -236.6C-361.7 -291.3 -273.2 -309.9 -198.2 -343.3C-123.1 -376.7 -61.6 -425 0 -473.2L0 0Z" fill="#e9ebcf"></path><path d="M-405.6 0C-399.1 -77.9 -392.5 -155.9 -351.3 -202.8C-310.1 -249.7 -234.2 -265.6 -169.9 -294.2C-105.6 -322.9 -52.8 -364.2 0 -405.6L0 0Z" fill="#d4e5c4"></path><path d="M-338 0C-332.6 -65 -327.1 -129.9 -292.7 -169C-258.4 -208.1 -195.2 -221.3 -141.6 -245.2C-88 -269.1 -44 -303.5 0 -338L0 0Z" fill="#bae0bf"></path><path d="M-270.4 0C-266 -52 -261.7 -103.9 -234.2 -135.2C-206.7 -166.5 -156.1 -177.1 -113.3 -196.2C-70.4 -215.2 -35.2 -242.8 0 -270.4L0 0Z" fill="#9ddac0"></path><path d="M-202.8 0C-199.5 -39 -196.2 -77.9 -175.6 -101.4C-155 -124.9 -117.1 -132.8 -84.9 -147.1C-52.8 -161.4 -26.4 -182.1 0 -202.8L0 0Z" fill="#7cd4c7"></path><path d="M-135.2 0C-133 -26 -130.8 -52 -117.1 -67.6C-103.4 -83.2 -78.1 -88.5 -56.6 -98.1C-35.2 -107.6 -17.6 -121.4 0 -135.2L0 0Z" fill="#58ccd1"></path><path d="M-67.6 0C-66.5 -13 -65.4 -26 -58.5 -33.8C-51.7 -41.6 -39 -44.3 -28.3 -49C-17.6 -53.8 -8.8 -60.7 0 -67.6L0 0Z" fill="#45c8d7"></path></g><g transform="translate(0, 0)"><path d="M540.8 0C494.4 75.4 448 150.9 408.8 236C369.5 321.1 337.4 416 270.4 468.4C203.5 520.8 101.7 530.8 0 540.8L0 0Z" fill="#f9f1de"></path><path d="M473.2 0C432.6 66 392 132 357.7 206.5C323.3 281 295.2 364 236.6 409.8C178 455.7 89 464.5 0 473.2L0 0Z" fill="#e9ebcf"></path><path d="M405.6 0C370.8 56.6 336 113.2 306.6 177C277.1 240.8 253 312 202.8 351.3C152.6 390.6 76.3 398.1 0 405.6L0 0Z" fill="#d4e5c4"></path><path d="M338 0C309 47.1 280 94.3 255.5 147.5C230.9 200.7 210.8 260 169 292.7C127.2 325.5 63.6 331.8 0 338L0 0Z" fill="#bae0bf"></path><path d="M270.4 0C247.2 37.7 224 75.4 204.4 118C184.7 160.6 168.7 208 135.2 234.2C101.7 260.4 50.9 265.4 0 270.4L0 0Z" fill="#9ddac0"></path><path d="M202.8 0C185.4 28.3 168 56.6 153.3 88.5C138.6 120.4 126.5 156 101.4 175.6C76.3 195.3 38.2 199.1 0 202.8L0 0Z" fill="#7cd4c7"></path><path d="M135.2 0C123.6 18.9 112 37.7 102.2 59C92.4 80.3 84.3 104 67.6 117.1C50.9 130.2 25.4 132.7 0 135.2L0 0Z" fill="#58ccd1"></path><path d="M67.6 0C61.8 9.4 56 18.9 51.1 29.5C46.2 40.1 42.2 52 33.8 58.5C25.4 65.1 12.7 66.4 0 67.6L0 0Z" fill="#45c8d7"></path></g></svg>