<svg id="visual" viewBox="0 0 900 600" width="900" height="600" xmlns="http://www.w3.org/2000/svg" xmlns:xlink="http://www.w3.org/1999/xlink" version="1.1"><rect x="0" y="0" width="900" height="600" fill="#e6ffff"></rect><defs><linearGradient id="grad1_0" x1="33.3%" y1="100%" x2="100%" y2="0%"><stop offset="20%" stop-color="#45c8d7" stop-opacity="1"></stop><stop offset="80%" stop-color="#45c8d7" stop-opacity="1"></stop></linearGradient></defs><defs><linearGradient id="grad1_1" x1="33.3%" y1="100%" x2="100%" y2="0%"><stop offset="20%" stop-color="#45c8d7" stop-opacity="1"></stop><stop offset="80%" stop-color="#79d6df" stop-opacity="1"></stop></linearGradient></defs><defs><linearGradient id="grad1_2" x1="33.3%" y1="100%" x2="100%" y2="0%"><stop offset="20%" stop-color="#a0e4e9" stop-opacity="1"></stop><stop offset="80%" stop-color="#79d6df" stop-opacity="1"></stop></linearGradient></defs><defs><linearGradient id="grad1_3" x1="33.3%" y1="100%" x2="100%" y2="0%"><stop offset="20%" stop-color="#a0e4e9" stop-opacity="1"></stop><stop offset="80%" stop-color="#c4f1f3" stop-opacity="1"></stop></linearGradient></defs><defs><linearGradient id="grad1_4" x1="33.3%" y1="100%" x2="100%" y2="0%"><stop offset="20%" stop-color="#e6ffff" stop-opacity="1"></stop><stop offset="80%" stop-color="#c4f1f3" stop-opacity="1"></stop></linearGradient></defs><defs><linearGradient id="grad2_0" x1="0%" y1="100%" x2="66.7%" y2="0%"><stop offset="20%" stop-color="#45c8d7" stop-opacity="1"></stop><stop offset="80%" stop-color="#45c8d7" stop-opacity="1"></stop></linearGradient></defs><defs><linearGradient id="grad2_1" x1="0%" y1="100%" x2="66.7%" y2="0%"><stop offset="20%" stop-color="#79d6df" stop-opacity="1"></stop><stop offset="80%" stop-color="#45c8d7" stop-opacity="1"></stop></linearGradient></defs><defs><linearGradient id="grad2_2" x1="0%" y1="100%" x2="66.7%" y2="0%"><stop offset="20%" stop-color="#79d6df" stop-opacity="1"></stop><stop offset="80%" stop-color="#a0e4e9" stop-opacity="1"></stop></linearGradient></defs><defs><linearGradient id="grad2_3" x1="0%" y1="100%" x2="66.7%" y2="0%"><stop offset="20%" stop-color="#c4f1f3" stop-opacity="1"></stop><stop offset="80%" stop-color="#a0e4e9" stop-opacity="1"></stop></linearGradient></defs><defs><linearGradient id="grad2_4" x1="0%" y1="100%" x2="66.7%" y2="0%"><stop offset="20%" stop-color="#c4f1f3" stop-opacity="1"></stop><stop offset="80%" stop-color="#e6ffff" stop-opacity="1"></stop></linearGradient></defs><g transform="translate(900, 600)"><path d="M-513.8 0C-499.1 -51.5 -484.4 -103 -457.5 -148.6C-430.5 -194.2 -391.2 -233.9 -347.1 -252.2C-302.9 -270.4 -253.8 -267.3 -226.3 -311.5C-198.8 -355.6 -192.9 -447 -158.8 -488.6C-124.7 -530.2 -62.3 -522 0 -513.8L0 0Z" fill="#d5f8f9"></path><path d="M-411 0C-399.3 -41.2 -387.5 -82.4 -366 -118.9C-344.4 -155.4 -313 -187.1 -277.7 -201.7C-242.3 -216.3 -203 -213.9 -181 -249.2C-159 -284.5 -154.3 -357.6 -127 -390.9C-99.7 -424.2 -49.9 -417.6 0 -411L0 0Z" fill="#b2ebee"></path><path d="M-308.3 0C-299.5 -30.9 -290.7 -61.8 -274.5 -89.2C-258.3 -116.5 -234.7 -140.3 -208.2 -151.3C-181.7 -162.3 -152.3 -160.4 -135.8 -186.9C-119.3 -213.4 -115.7 -268.2 -95.3 -293.2C-74.8 -318.1 -37.4 -313.2 0 -308.3L0 0Z" fill="#8ddde4"></path><path d="M-205.5 0C-199.6 -20.6 -193.8 -41.2 -183 -59.5C-172.2 -77.7 -156.5 -93.6 -138.8 -100.9C-121.2 -108.2 -101.5 -106.9 -90.5 -124.6C-79.5 -142.3 -77.2 -178.8 -63.5 -195.5C-49.9 -212.1 -24.9 -208.8 0 -205.5L0 0Z" fill="#61cfdb"></path><path d="M-102.8 0C-99.8 -10.3 -96.9 -20.6 -91.5 -29.7C-86.1 -38.8 -78.2 -46.8 -69.4 -50.4C-60.6 -54.1 -50.8 -53.5 -45.3 -62.3C-39.8 -71.1 -38.6 -89.4 -31.8 -97.7C-24.9 -106 -12.5 -104.4 0 -102.8L0 0Z" fill="#45c8d7"></path></g><g transform="translate(0, 0)"><path d="M513.8 0C460.6 39.3 407.4 78.7 384.2 124.8C361 171 367.8 224 342.2 248.6C316.6 273.3 258.6 269.6 227.5 313.1C196.4 356.6 192.2 447.3 158.8 488.6C125.3 530 62.7 521.9 0 513.8L0 0Z" fill="#d5f8f9"></path><path d="M411 0C368.5 31.5 325.9 62.9 307.4 99.9C288.8 136.8 294.3 179.2 273.8 198.9C253.3 218.6 206.9 215.7 182 250.5C157.1 285.3 153.8 357.9 127 390.9C100.3 424 50.1 417.5 0 411L0 0Z" fill="#b2ebee"></path><path d="M308.3 0C276.4 23.6 244.5 47.2 230.5 74.9C216.6 102.6 220.7 134.4 205.3 149.2C190 164 155.1 161.7 136.5 187.9C117.8 214 115.3 268.4 95.3 293.2C75.2 318 37.6 313.1 0 308.3L0 0Z" fill="#8ddde4"></path><path d="M205.5 0C184.2 15.7 163 31.5 153.7 49.9C144.4 68.4 147.1 89.6 136.9 99.5C126.6 109.3 103.4 107.8 91 125.2C78.5 142.6 76.9 178.9 63.5 195.5C50.1 212 25.1 208.8 0 205.5L0 0Z" fill="#61cfdb"></path><path d="M102.8 0C92.1 7.9 81.5 15.7 76.8 25C72.2 34.2 73.6 44.8 68.4 49.7C63.3 54.7 51.7 53.9 45.5 62.6C39.3 71.3 38.4 89.5 31.8 97.7C25.1 106 12.5 104.4 0 102.8L0 0Z" fill="#45c8d7"></path></g></svg>