<svg id="visual" viewBox="0 0 960 540" width="960" height="540" xmlns="http://www.w3.org/2000/svg"
     xmlns:xlink="http://www.w3.org/1999/xlink" version="1.1">
    <rect x="0" y="0" width="960" height="540" fill="#F3EBDB"></rect>
    <defs>
        <linearGradient id="grad1_0" x1="43.8%" y1="100%" x2="100%" y2="0%">
            <stop offset="14.444444444444446%" stop-color="#4e24a1" stop-opacity="1"></stop>
            <stop offset="85.55555555555554%" stop-color="#4e24a1" stop-opacity="1"></stop>
        </linearGradient>
    </defs>
    <defs>
        <linearGradient id="grad1_1" x1="43.8%" y1="100%" x2="100%" y2="0%">
            <stop offset="14.444444444444446%" stop-color="#4e24a1" stop-opacity="1"></stop>
            <stop offset="85.55555555555554%" stop-color="#a62d8b" stop-opacity="1"></stop>
        </linearGradient>
    </defs>
    <defs>
        <linearGradient id="grad1_2" x1="43.8%" y1="100%" x2="100%" y2="0%">
            <stop offset="14.444444444444446%" stop-color="#cf5a7c" stop-opacity="1"></stop>
            <stop offset="85.55555555555554%" stop-color="#a62d8b" stop-opacity="1"></stop>
        </linearGradient>
    </defs>
    <defs>
        <linearGradient id="grad1_3" x1="43.8%" y1="100%" x2="100%" y2="0%">
            <stop offset="14.444444444444446%" stop-color="#cf5a7c" stop-opacity="1"></stop>
            <stop offset="85.55555555555554%" stop-color="#e18e81" stop-opacity="1"></stop>
        </linearGradient>
    </defs>
    <defs>
        <linearGradient id="grad1_4" x1="43.8%" y1="100%" x2="100%" y2="0%">
            <stop offset="14.444444444444446%" stop-color="#e8bfa3" stop-opacity="1"></stop>
            <stop offset="85.55555555555554%" stop-color="#e18e81" stop-opacity="1"></stop>
        </linearGradient>
    </defs>
    <defs>
        <linearGradient id="grad1_5" x1="43.8%" y1="100%" x2="100%" y2="0%">
            <stop offset="14.444444444444446%" stop-color="#e8bfa3" stop-opacity="1"></stop>
            <stop offset="85.55555555555554%" stop-color="#f3ebdb" stop-opacity="1"></stop>
        </linearGradient>
    </defs>
    <defs>
        <linearGradient id="grad2_0" x1="0%" y1="100%" x2="56.3%" y2="0%">
            <stop offset="14.444444444444446%" stop-color="#4e24a1" stop-opacity="1"></stop>
            <stop offset="85.55555555555554%" stop-color="#4e24a1" stop-opacity="1"></stop>
        </linearGradient>
    </defs>
    <defs>
        <linearGradient id="grad2_1" x1="0%" y1="100%" x2="56.3%" y2="0%">
            <stop offset="14.444444444444446%" stop-color="#a62d8b" stop-opacity="1"></stop>
            <stop offset="85.55555555555554%" stop-color="#4e24a1" stop-opacity="1"></stop>
        </linearGradient>
    </defs>
    <defs>
        <linearGradient id="grad2_2" x1="0%" y1="100%" x2="56.3%" y2="0%">
            <stop offset="14.444444444444446%" stop-color="#a62d8b" stop-opacity="1"></stop>
            <stop offset="85.55555555555554%" stop-color="#cf5a7c" stop-opacity="1"></stop>
        </linearGradient>
    </defs>
    <defs>
        <linearGradient id="grad2_3" x1="0%" y1="100%" x2="56.3%" y2="0%">
            <stop offset="14.444444444444446%" stop-color="#e18e81" stop-opacity="1"></stop>
            <stop offset="85.55555555555554%" stop-color="#cf5a7c" stop-opacity="1"></stop>
        </linearGradient>
    </defs>
    <defs>
        <linearGradient id="grad2_4" x1="0%" y1="100%" x2="56.3%" y2="0%">
            <stop offset="14.444444444444446%" stop-color="#e18e81" stop-opacity="1"></stop>
            <stop offset="85.55555555555554%" stop-color="#e8bfa3" stop-opacity="1"></stop>
        </linearGradient>
    </defs>
    <defs>
        <linearGradient id="grad2_5" x1="0%" y1="100%" x2="56.3%" y2="0%">
            <stop offset="14.444444444444446%" stop-color="#f3ebdb" stop-opacity="1"></stop>
            <stop offset="85.55555555555554%" stop-color="#e8bfa3" stop-opacity="1"></stop>
        </linearGradient>
    </defs>
    <g transform="translate(960, 540)">
        <path d="M-513 0C-461.9 -46.6 -410.8 -93.3 -395.4 -163.8C-380 -234.3 -400.3 -328.8 -362.7 -362.7C-325.2 -396.7 -229.7 -370.3 -159.6 -385.3C-89.5 -400.2 -44.7 -456.6 0 -513L0 0Z"
              fill="#ecd6bd"></path>
        <path d="M-427.5 0C-384.9 -38.9 -342.3 -77.7 -329.5 -136.5C-316.7 -195.3 -333.6 -274 -302.3 -302.3C-271 -330.6 -191.4 -308.6 -133 -321C-74.6 -333.5 -37.3 -380.5 0 -427.5L0 0Z"
              fill="#e5a78f"></path>
        <path d="M-342 0C-307.9 -31.1 -273.9 -62.2 -263.6 -109.2C-253.4 -156.2 -266.9 -219.2 -241.8 -241.8C-216.8 -264.5 -153.1 -246.9 -106.4 -256.8C-59.6 -266.8 -29.8 -304.4 0 -342L0 0Z"
              fill="#da747b"></path>
        <path d="M-256.5 0C-231 -23.3 -205.4 -46.6 -197.7 -81.9C-190 -117.2 -200.2 -164.4 -181.4 -181.4C-162.6 -198.4 -114.8 -185.1 -79.8 -192.6C-44.7 -200.1 -22.4 -228.3 0 -256.5L0 0Z"
              fill="#bf4281"></path>
        <path d="M-171 0C-154 -15.5 -136.9 -31.1 -131.8 -54.6C-126.7 -78.1 -133.4 -109.6 -120.9 -120.9C-108.4 -132.2 -76.6 -123.4 -53.2 -128.4C-29.8 -133.4 -14.9 -152.2 0 -171L0 0Z"
              fill="#842296"></path>
        <path d="M-85.5 0C-77 -7.8 -68.5 -15.5 -65.9 -27.3C-63.3 -39.1 -66.7 -54.8 -60.5 -60.5C-54.2 -66.1 -38.3 -61.7 -26.6 -64.2C-14.9 -66.7 -7.5 -76.1 0 -85.5L0 0Z"
              fill="#4e24a1"></path>
    </g>
    <g transform="translate(0, 0)">
        <path d="M513 0C485.4 65.3 457.8 130.6 416.7 172.6C375.5 214.5 320.8 233.1 287.1 287.1C253.4 341.1 240.7 430.4 196.3 474C152 517.5 76 515.3 0 513L0 0Z"
              fill="#ecd6bd"></path>
        <path d="M427.5 0C404.5 54.4 381.5 108.9 347.2 143.8C312.9 178.8 267.3 194.3 239.2 239.2C211.1 284.2 200.6 358.7 163.6 395C126.6 431.3 63.3 429.4 0 427.5L0 0Z"
              fill="#e5a78f"></path>
        <path d="M342 0C323.6 43.5 305.2 87.1 277.8 115.1C250.3 143 213.9 155.4 191.4 191.4C168.9 227.4 160.4 286.9 130.9 316C101.3 345 50.7 343.5 0 342L0 0Z"
              fill="#da747b"></path>
        <path d="M256.5 0C242.7 32.7 228.9 65.3 208.3 86.3C187.8 107.3 160.4 116.6 143.5 143.5C126.7 170.5 120.3 215.2 98.2 237C76 258.8 38 257.6 0 256.5L0 0Z"
              fill="#bf4281"></path>
        <path d="M171 0C161.8 21.8 152.6 43.5 138.9 57.5C125.2 71.5 106.9 77.7 95.7 95.7C84.5 113.7 80.2 143.5 65.4 158C50.7 172.5 25.3 171.8 0 171L0 0Z"
              fill="#842296"></path>
        <path d="M85.5 0C80.9 10.9 76.3 21.8 69.4 28.8C62.6 35.8 53.5 38.9 47.8 47.8C42.2 56.8 40.1 71.7 32.7 79C25.3 86.3 12.7 85.9 0 85.5L0 0Z"
              fill="#4e24a1"></path>
    </g>
</svg>